<?xml version="1.0" encoding="UTF-8"?>
<svg id="Layer_2" data-name="Layer 2" xmlns="http://www.w3.org/2000/svg" viewBox="0 0 3000 416.82">
  <defs>
    <style>
      .cls-1 {
        fill: #005f9e;
      }

      .cls-2 {
        fill: #009448;
      }
    </style>
  </defs>
  <g id="Watertronics">
    <g>
      <path class="cls-2" d="m139.36,126.87c67.32,19.61,98.19,67.41,146.74,68.14,24.99.37,45.26-20.26,45.26-45.25s-19.57-44.39-43.91-45.11c.83-.02,1.65-.12,2.49-.12,50.25,0,94.78,24.33,122.63,61.79C393.1,71.39,309.08,0,208.41,0,117.17,0,39.67,58.66,11.44,140.31c28.27-27.57,78.6-27.81,127.92-13.44Z"/>
      <g>
        <path class="cls-1" d="m289.95,157.34c-.84,0-1.66.11-2.49.12,24.35.72,43.91,20.59,43.91,45.12s-20.27,45.63-45.26,45.24c-48.55-.71-79.43-48.51-146.74-68.13C82.45,163.1,24.15,165.92.01,207.77c0,.22-.01.43-.01.65,0,115.1,93.31,208.41,208.41,208.41s199.76-84.97,207.78-192.73c-27.51-40.28-73.78-66.75-126.24-66.75Z"/>
        <g>
          <path class="cls-1" d="m474.87,129.34h60.45l-13.36,159.79,69.57-159.79h74.43l-.91,158.58,53.77-158.58h54.99l-84.15,219.34h-72.91l-3.34-162.53-75.04,162.53h-72.61l9.11-219.34Z"/>
          <path class="cls-1" d="m843.98,129.34h74.13l40.1,219.34h-68.66l-5.77-44.05h-87.8l-24.3,44.05h-60.76l133.06-219.34Zm34.33,134.88l-8.81-92.05h-.91l-49.82,92.05h59.55Z"/>
          <path class="cls-1" d="m1018.35,172.78h-66.83l9.11-43.44h196.55l-9.11,43.44h-68.36l-37.37,175.9h-61.37l37.37-175.9Z"/>
          <path class="cls-1" d="m1174.8,129.95h164.66l-8.81,41.92h-104.51l-9.72,45.57h98.43l-9.11,41.92h-98.43l-9.72,46.78h106.93l-9.12,42.53h-167.08l46.48-218.73Z"/>
          <path class="cls-1" d="m1365.27,129.34h101.47c39.49,0,54.08,2.43,64.1,15.8,5.47,6.68,11.24,18.83,6.38,42.53-5.17,24-17.01,34.33-28.86,40.71-15.8,8.81-29.47,10.33-35.85,11.24l-.3,1.21c42.53,1.21,40.71,20.05,38.58,53.77-1.21,14.89-3.04,38.58-1.21,54.08h-65.92c-.91-13.37,1.21-30.08,3.34-49.52,2.73-26.43,3.95-36.15-23.39-36.15h-25.52l-18.23,85.67h-61.06l46.48-219.34Zm41.32,94.18h22.78c13.37,0,20.05,0,25.52-1.82,14.28-4.25,19.75-17.92,21.27-24.91,5.77-27.04-17.92-27.04-35.54-27.04h-22.79l-11.24,53.77Z"/>
          <path class="cls-1" d="m1620.75,172.78h-66.83l9.12-43.44h196.55l-9.12,43.44h-68.35l-37.36,175.9h-61.37l37.37-175.9Z"/>
          <path class="cls-1" d="m1775.38,129.34h101.47c39.5,0,54.08,2.43,64.1,15.8,5.47,6.68,11.24,18.83,6.38,42.53-5.17,24-17.01,34.33-28.86,40.71-15.8,8.81-29.47,10.33-35.85,11.24l-.3,1.21c42.53,1.21,40.71,20.05,38.58,53.77-1.22,14.89-3.04,38.58-1.22,54.08h-65.92c-.91-13.37,1.22-30.08,3.34-49.52,2.73-26.43,3.95-36.15-23.39-36.15h-25.52l-18.22,85.67h-61.07l46.48-219.34Zm41.32,94.18h22.78c13.37,0,20.05,0,25.52-1.82,14.28-4.25,19.75-17.92,21.27-24.91,5.77-27.04-17.92-27.04-35.54-27.04h-22.79l-11.24,53.77Z"/>
          <path class="cls-1" d="m1996.22,153.64c33.72-27.95,76.25-30.38,92.35-30.38,87.49,0,97.82,62.89,86.28,116.35-18.53,87.49-86.28,114.23-138.53,114.23-58.33,0-105.72-32.2-88.41-113.92,3.04-14.58,14.89-58.33,48.3-86.28Zm50.43,155.54c43.44,0,59.24-40.1,65.62-70.48,6.38-30.68,2.43-45.87-2.13-55.59-6.38-12.15-19.75-15.8-33.11-15.8-40.1,0-58.33,34.63-66.54,72.3-7.29,34.94-4.25,69.56,36.15,69.56Z"/>
          <path class="cls-1" d="m2218.89,129.34h83.85l39.49,163.44,34.02-163.44h53.17l-46.48,219.34h-82.02l-39.5-170.43-35.54,170.43h-53.47l46.48-219.34Z"/>
          <path class="cls-1" d="m2462.53,129.34h62.58l-46.47,219.34h-62.59l46.48-219.34Z"/>
          <path class="cls-1" d="m2679.74,198.3c2.13-22.18-11.85-30.38-29.16-30.38-36.76,0-54.99,33.72-63.49,73.82-3.04,13.37-14.28,68.65,32.81,68.65,32.2,0,40.41-23.39,43.44-31.9h63.19c-14.89,68.65-85.98,74.43-114.53,74.43-21.27,0-58.02-3.65-77.16-29.16-18.53-25.52-15.19-60.45-10.33-83.24,6.38-30.08,19.75-60.15,45.26-83.54,27.95-25.52,58.33-32.2,90.22-32.2,35.55,0,60.76,8.5,74.13,26.73,13.67,18.84,9.72,38.58,8.2,46.78h-62.58Z"/>
          <path class="cls-1" d="m2802.16,278.81c-1.52,8.81-6.38,34.02,29.77,34.02,5.17,0,32.51,0,37.97-24.91,2.13-10.33-.61-17.32-14.58-21.27l-50.73-13.98c-14.28-3.95-51.34-14.28-41.62-60.15,7.6-35.54,41.32-68.66,106.93-68.66,85.67,0,79.59,46.48,74.74,69.87h-61.67c1.52-6.68,6.99-30.38-22.17-30.38-17.62,0-30.99,10.03-33.72,23.09-3.64,16.1,8.81,20.05,17.32,22.48l38.58,10.63c27.64,7.6,60.45,16.71,50.43,63.19-10.33,48.91-56.81,70.78-111.79,70.78-22.79,0-58.94-3.64-74.12-26.12-12.46-17.62-8.21-39.19-6.38-48.61h61.07Z"/>
        </g>
      </g>
      <path class="cls-1" d="m2958.25,155.08c0-2.97.56-5.72,1.67-8.27,1.11-2.54,2.61-4.74,4.51-6.6,1.89-1.86,4.1-3.31,6.62-4.37,2.52-1.06,5.21-1.59,8.07-1.59s5.5.53,8.05,1.59c2.54,1.06,4.76,2.51,6.65,4.34,1.89,1.84,3.4,4.01,4.51,6.51,1.11,2.5,1.67,5.22,1.67,8.15s-.56,5.72-1.67,8.27c-1.11,2.54-2.62,4.74-4.51,6.6-1.89,1.86-4.11,3.31-6.65,4.37-2.54,1.06-5.22,1.59-8.05,1.59s-5.55-.53-8.07-1.59c-2.52-1.06-4.73-2.51-6.62-4.34-1.89-1.84-3.39-4.01-4.51-6.51-1.11-2.51-1.67-5.22-1.67-8.16Zm3.34,0c0,2.49.46,4.8,1.37,6.93.91,2.13,2.16,3.99,3.76,5.57,1.59,1.58,3.45,2.82,5.57,3.73,2.12.91,4.4,1.36,6.85,1.36s4.73-.45,6.85-1.36c2.12-.91,3.97-2.16,5.56-3.76,1.6-1.59,2.85-3.48,3.76-5.65.91-2.17,1.36-4.52,1.36-7.04s-.45-4.81-1.36-6.96c-.91-2.15-2.16-4.02-3.76-5.6-1.59-1.58-3.45-2.81-5.56-3.7s-4.4-1.34-6.85-1.34-4.73.46-6.85,1.36c-2.12.91-3.97,2.15-5.57,3.73-1.59,1.58-2.85,3.45-3.76,5.62-.91,2.17-1.37,4.54-1.37,7.1Zm9.8-11.97h8.8c2.89,0,5.03.55,6.4,1.64,1.37,1.1,2.06,2.85,2.06,5.26,0,2.15-.61,3.73-1.83,4.73-1.22,1-2.73,1.59-4.51,1.78l6.9,10.58h-3.62l-6.57-10.3h-4.29v10.3h-3.34v-24Zm3.34,10.69h4.12c.82,0,1.61-.03,2.39-.08.78-.05,1.48-.21,2.09-.47.61-.26,1.09-.65,1.45-1.17.35-.52.53-1.26.53-2.23,0-.82-.16-1.47-.47-1.98-.32-.5-.73-.88-1.25-1.14s-1.11-.43-1.75-.5c-.65-.07-1.29-.11-1.92-.11h-5.18v7.68Z"/>
    </g>
  </g>
</svg>